<?xml version="1.0" encoding="UTF-8" standalone="no"?>
<svg width="349px" height="487px" viewBox="0 0 349 487" version="1.1" xmlns="http://www.w3.org/2000/svg" xmlns:xlink="http://www.w3.org/1999/xlink">
    <!-- Generator: Sketch 3.8.3 (29802) - http://www.bohemiancoding.com/sketch -->
    <title>application-form</title>
    <desc>Created with Sketch.</desc>
    <defs></defs>
    <g id="Page-1" stroke="none" stroke-width="1" fill="none" fill-rule="evenodd">
        <g id="application-form" fill="#212121">
            <g id="Capa_1">
                <g id="Group">
                    <path d="M102.984,255.096 C129.682,267.02 171.603,269.136 171.603,269.136 C172.54,269.157 173.457,269.161 174.377,269.166 L174.377,269.169 C174.418,269.169 174.459,269.168 174.5,269.168 C174.541,269.168 174.584,269.169 174.625,269.169 L174.625,269.166 C175.545,269.161 176.467,269.154 177.399,269.136 C177.399,269.136 219.319,267.02 246.016,255.095 C246.016,255.095 249.831,254.199 249.954,245.449 C249.954,245.449 248.581,207.11 236.972,189.873 C236.972,189.873 234.063,185.406 225.822,182.333 C225.822,182.333 198.94,174.142 197.129,167.183 C197.129,167.183 188.224,190.24 174.502,189.981 C160.781,190.24 151.874,167.184 151.874,167.184 C150.062,174.143 123.182,182.334 123.182,182.334 C115.001,185.281 112.03,189.874 112.03,189.874 C100.421,207.11 99.048,245.449 99.048,245.449 C99.17,254.199 102.984,255.096 102.984,255.096 L102.984,255.096 Z" id="Shape"></path>
                    <path d="M144.896,139.823 C146.871,156.408 161.125,173.584 174.048,173.584 C188.913,173.584 203.017,155.493 205.235,139.824 C206.048,139.244 207.455,137.799 207.923,134.533 C207.923,134.533 211.077,123.198 206.863,124.409 C208.37,120.054 213.214,103.001 203.831,92.419 C203.831,92.419 199.456,86.375 188.712,83.17 C188.284,82.875 187.941,82.56 187.491,82.244 C187.491,82.244 187.734,82.539 188.018,82.997 C187.45,82.854 186.818,82.712 186.186,82.559 C185.596,81.918 184.906,81.287 184.193,80.626 C184.193,80.626 184.866,81.287 185.618,82.437 C185.294,82.355 185.068,82.244 184.784,82.223 C184.313,81.46 183.706,80.727 182.93,79.974 C182.93,79.974 183.256,80.544 183.703,81.459 C181.668,80.014 177.727,76.667 177.727,72.933 C177.727,72.933 175.212,74.083 173.809,76.189 C173.206,75.25 173.727,74.144 173.727,74.144 C172.587,74.785 169.623,77.176 168.686,80.422 L167.836,79.272 C166.107,77.288 163.064,78.814 163.064,78.814 C163.064,78.814 147.376,85.601 142.828,99.673 C142.828,99.673 140.203,106.002 143.703,124.632 C138.707,122.281 142.115,134.532 142.115,134.532 C142.646,137.819 144.001,139.264 144.896,139.823 L144.896,139.823 Z" id="Shape"></path>
                    <path d="M282.355,19.76 L282.355,0 L250.774,0 L250.774,19.76 L98.23,19.76 L98.23,0 L66.667,0 L66.667,19.76 L0.732,19.76 L0.732,487 L348.267,487 L348.267,19.76 L282.355,19.76 L282.355,19.76 Z M18.867,468.93 L18.867,37.841 L66.669,37.841 L66.669,63.115 L98.232,63.115 L98.232,37.841 L250.816,37.841 L250.816,63.115 L282.357,63.115 L282.357,37.841 L330.177,37.841 L330.179,468.93 L18.867,468.93 L18.867,468.93 Z" id="Shape"></path>
                    <rect id="Rectangle-path" x="60.797" y="407.922" width="184.038" height="18.314"></rect>
                    <rect id="Rectangle-path" x="60.768" y="300.658" width="238.194" height="18.231"></rect>
                    <rect id="Rectangle-path" x="60.769" y="337.309" width="220.165" height="18.334"></rect>
                    <rect id="Rectangle-path" x="60.769" y="372.92" width="202.096" height="18.213"></rect>
                </g>
            </g>
        </g>
    </g>
</svg>