<?xml version="1.0" encoding="UTF-8" standalone="no"?>
<svg width="199px" height="280px" viewBox="0 0 199 280" version="1.1" xmlns="http://www.w3.org/2000/svg" xmlns:xlink="http://www.w3.org/1999/xlink">
    <!-- Generator: Sketch 3.8.3 (29802) - http://www.bohemiancoding.com/sketch -->
    <title>chair</title>
    <desc>Created with Sketch.</desc>
    <defs></defs>
    <g id="Page-1" stroke="none" stroke-width="1" fill="none" fill-rule="evenodd">
        <g id="chair" fill="#212121">
            <path d="M192.423,101.03 L171.926,101.03 C168.613,101.03 165.926,103.717 165.926,107.03 C165.926,110.343 168.613,113.03 171.926,113.03 L176.355,113.03 L176.355,144.547 L162.959,151.682 C159.67,147.369 154.48,144.629 148.82,144.629 L116.06,144.629 L116.06,128.541 L136.167,128.541 C141.73,128.541 146.911,126.327 150.757,122.308 C154.603,118.289 156.585,113.014 156.339,107.457 L152.44,19.3 C151.96,8.478 143.1,0 132.267,0 L69.187,0 C58.354,0 49.493,8.478 49.014,19.3 L45.115,107.456 C44.869,113.013 46.851,118.288 50.697,122.307 C54.543,126.326 59.724,128.54 65.287,128.54 L85.394,128.54 L85.394,144.628 L50.595,144.628 C44.757,144.628 39.487,147.474 36.229,151.953 L34.751,151.166 L22.98,144.897 L22.98,122.574 L22.98,113.381 L27.409,113.381 C30.722,113.381 33.409,110.694 33.409,107.381 C33.409,104.068 30.722,101.381 27.409,101.381 L6.911,101.381 C3.598,101.381 0.911,104.068 0.911,107.381 C0.911,110.694 3.598,113.381 6.911,113.381 L10.979,113.381 L10.979,148.5 C10.979,150.717 12.202,152.753 14.159,153.796 L32.331,163.474 L31.492,168.003 C30.527,173.208 31.914,178.526 35.299,182.596 C38.684,186.666 43.66,189 48.954,189 L82.113,189 L82.113,200.667 C82.113,203.98 84.8,206.667 88.113,206.667 L94.825,206.667 C94.764,207.011 94.726,207.362 94.726,207.723 L94.726,222.546 C71.449,223.006 48.33,226.135 25.918,231.879 C23.264,232.559 21.407,234.955 21.407,237.695 L21.407,250.637 C16.142,252.954 12.453,258.213 12.453,264.325 C12.453,272.571 19.161,279.279 27.407,279.279 C35.652,279.279 42.36,272.571 42.36,264.325 C42.36,258.214 38.671,252.955 33.407,250.638 L33.407,242.387 C53.432,237.601 74.011,234.976 94.725,234.55 L94.725,250.721 C89.491,253.051 85.828,258.292 85.828,264.381 C85.828,272.627 92.536,279.335 100.781,279.335 C109.027,279.335 115.735,272.627 115.735,264.381 C115.735,258.248 112.02,252.971 106.725,250.667 L106.725,234.55 C127.438,234.976 148.015,237.601 168.042,242.387 L168.042,250.638 C162.778,252.955 159.089,258.214 159.089,264.325 C159.089,272.571 165.797,279.279 174.043,279.279 C182.288,279.279 188.996,272.571 188.996,264.325 C188.996,258.213 185.307,252.954 180.042,250.637 L180.042,237.846 C180.115,235.101 178.289,232.585 175.532,231.879 C153.118,226.135 130,223.007 106.724,222.547 L106.724,207.724 C106.724,207.363 106.686,207.011 106.625,206.668 L113.336,206.668 C116.649,206.668 119.336,203.981 119.336,200.668 L119.336,189 L150.731,189 C156.127,189 161.165,186.592 164.552,182.393 C167.941,178.194 169.23,172.761 168.089,167.487 L167.13,163.054 L185.172,153.445 C187.129,152.403 188.352,150.366 188.352,148.149 L188.352,113.03 L192.42,113.03 C195.733,113.03 198.42,110.343 198.42,107.03 C198.42,103.717 195.736,101.03 192.423,101.03 L192.423,101.03 Z M24.454,264.324 C24.454,262.696 25.779,261.37 27.408,261.37 C29.036,261.37 30.361,262.695 30.361,264.324 C30.361,265.953 29.036,267.278 27.408,267.278 C25.779,267.278 24.454,265.953 24.454,264.324 L24.454,264.324 Z M171.091,264.324 C171.091,262.696 172.416,261.37 174.045,261.37 C175.673,261.37 176.998,262.695 176.998,264.324 C176.998,265.953 175.673,267.278 174.045,267.278 C172.416,267.278 171.091,265.953 171.091,264.324 L171.091,264.324 Z M100.782,267.334 C99.154,267.334 97.829,266.009 97.829,264.38 C97.829,262.751 99.154,261.426 100.782,261.426 C102.411,261.426 103.736,262.751 103.736,264.38 C103.736,266.009 102.411,267.334 100.782,267.334 L100.782,267.334 Z M107.339,194.667 L94.113,194.667 L94.113,189 L107.339,189 L107.339,194.667 L107.339,194.667 Z M48.954,177 C46.603,177 45.171,175.699 44.525,174.923 C43.88,174.148 42.862,172.502 43.291,170.191 L44.932,161.339 C45.438,158.61 47.82,156.629 50.595,156.629 L148.82,156.629 C151.513,156.629 153.881,158.539 154.45,161.171 L156.364,170.023 C156.733,171.733 156.315,173.496 155.217,174.857 C154.119,176.218 152.483,177 150.733,177 L48.954,177 L48.954,177 Z M59.367,114.012 C57.806,112.381 57.003,110.241 57.102,107.987 L61.001,19.831 C61.195,15.44 64.79,12 69.186,12 L132.266,12 C136.662,12 140.256,15.439 140.451,19.83 L144.35,107.986 C144.45,110.241 143.646,112.381 142.085,114.011 C140.524,115.641 138.423,116.54 136.166,116.54 L65.285,116.54 C63.029,116.541 60.928,115.643 59.367,114.012 L59.367,114.012 Z M104.06,128.541 L104.06,144.629 L97.394,144.629 L97.394,128.541 L104.06,128.541 L104.06,128.541 Z" id="Shape"></path>
        </g>
    </g>
</svg>