<?xml version="1.0" encoding="UTF-8" standalone="no"?>
<svg width="340px" height="389px" viewBox="0 0 340 389" version="1.1" xmlns="http://www.w3.org/2000/svg" xmlns:xlink="http://www.w3.org/1999/xlink">
    <!-- Generator: Sketch 3.8.3 (29802) - http://www.bohemiancoding.com/sketch -->
    <title>male-graduated-student</title>
    <desc>Created with Sketch.</desc>
    <defs></defs>
    <g id="Page-1" stroke="none" stroke-width="1" fill="none" fill-rule="evenodd">
        <g id="male-graduated-student" fill="#212121">
            <g id="Capa_1">
                <path d="M338.953,271.075 L316.243,210.235 L316.243,115.475 L316.242,115.475 C316.211,113.097 315.053,110.875 313.123,109.487 L163.067,1.533 C163.067,1.534 163.066,1.534 163.065,1.535 C160.51,-0.414 156.883,-0.564 154.14,1.413 L3.918,109.487 C1.987,110.876 0.83,113.097 0.799,115.475 C0.768,117.853 1.866,120.105 3.758,121.544 L79.648,179.266 L79.648,201.862 C79.648,235.413 93.133,265.096 113.682,282.907 L113.682,304.94 C92.73,309.837 25.819,329.207 13.713,378.954 C13.17,381.19 13.682,383.553 15.104,385.361 C16.526,387.171 18.7,388.227 21.001,388.227 L296.039,388.227 C298.341,388.227 300.515,387.17 301.936,385.361 C303.358,383.552 303.871,381.19 303.327,378.954 C291.223,329.208 224.312,309.838 203.359,304.94 L203.359,282.906 C223.908,265.095 237.392,235.412 237.392,201.862 L237.392,179.266 L301.243,130.702 L301.243,210.234 L278.533,271.075 C277.084,274.956 279.057,279.276 282.937,280.725 C283.8,281.048 284.687,281.2 285.558,281.2 C288.599,281.2 291.459,279.337 292.585,276.321 L301.242,253.129 L301.242,273.698 C301.242,277.841 304.6,281.198 308.742,281.198 C312.884,281.198 316.242,277.841 316.242,273.698 L316.242,253.129 L324.899,276.321 C326.024,279.337 328.885,281.2 331.926,281.2 C332.797,281.2 333.683,281.047 334.547,280.725 C338.43,279.276 340.402,274.956 338.953,271.075 L338.953,271.075 Z M31.542,373.227 C35.377,364.955 41.316,357.8 48.363,351.644 L65.759,373.227 L31.542,373.227 L31.542,373.227 Z M85.024,373.227 L60.388,342.661 C71.748,335.331 84.293,329.917 95.122,326.089 L132.582,373.228 L85.024,373.228 L85.024,373.227 Z M166.56,373.227 L151.743,373.227 L144.651,364.303 L173.652,364.303 L166.56,373.227 L166.56,373.227 Z M285.503,373.227 L252.543,373.227 L269.428,352.278 C276.145,358.29 281.804,365.234 285.503,373.227 L285.503,373.227 Z M257.5,343.174 L233.277,373.228 L185.718,373.228 L222.915,326.42 C233.787,330.315 246.264,335.787 257.5,343.174 L257.5,343.174 Z M207.621,321.558 L185.572,349.303 L132.73,349.303 L110.462,321.282 C117.654,319.31 122.335,318.42 122.528,318.384 C126.092,317.734 128.68,314.628 128.68,311.006 L128.68,293.1 C137.89,297.821 147.964,300.432 158.518,300.432 C169.073,300.432 179.148,297.821 188.358,293.099 L188.358,311.006 C188.358,314.628 190.948,317.734 194.51,318.384 C194.715,318.422 199.84,319.391 207.621,321.558 L207.621,321.558 Z M158.52,285.432 C126.156,285.432 99.354,253.766 95.219,212.873 C107.828,204.889 151.018,178.983 192.668,170.803 C195.483,183.711 203.109,209.436 220.645,221.219 C213.952,257.994 188.647,285.432 158.52,285.432 L158.52,285.432 Z M94.648,195.58 L94.648,190.568 C101.585,174.634 129.252,162.311 158.587,162.311 C160.861,162.311 163.117,162.389 165.353,162.527 C135.987,172.084 109.232,186.813 94.648,195.58 L94.648,195.58 Z M222.393,201.862 C222.393,202.13 222.379,202.392 222.377,202.659 C216.334,195.347 212.139,185.077 209.488,176.135 C215.568,180.301 220.087,185.202 222.392,190.56 L222.392,201.862 L222.393,201.862 Z M222.393,167.251 C207.45,155.061 183.978,147.312 158.587,147.312 C133.143,147.312 109.618,155.071 94.648,167.278 L94.648,153.566 C94.648,133.712 123.928,116.939 158.587,116.939 C193.174,116.939 222.393,133.712 222.393,153.566 L222.393,167.251 L222.393,167.251 Z M237.393,160.42 L237.393,153.566 C237.393,124.616 202.778,101.939 158.587,101.939 C138.159,101.939 118.83,106.926 104.159,115.982 C88.352,125.739 79.647,139.086 79.647,153.566 L79.647,160.421 L20.907,115.743 L158.52,16.74 L296.133,115.743 L237.393,160.42 L237.393,160.42 Z" id="Shape"></path>
            </g>
        </g>
    </g>
</svg>