<?xml version="1.0" encoding="UTF-8" standalone="no"?>
<svg width="65px" height="65px" viewBox="0 0 65 65" version="1.1" xmlns="http://www.w3.org/2000/svg" xmlns:xlink="http://www.w3.org/1999/xlink">
    <!-- Generator: Sketch 3.8.3 (29802) - http://www.bohemiancoding.com/sketch -->
    <title>question</title>
    <desc>Created with Sketch.</desc>
    <defs></defs>
    <g id="Page-1" stroke="none" stroke-width="1" fill="none" fill-rule="evenodd">
        <g id="question" fill="#212121">
            <g id="Capa_1">
                <g id="Group">
                    <path d="M32.5,0 C14.579,0 0,14.579 0,32.5 C0,50.421 14.579,65 32.5,65 C50.421,65 65,50.421 65,32.5 C65,14.579 50.421,0 32.5,0 L32.5,0 Z M32.5,61 C16.785,61 4,48.215 4,32.5 C4,16.785 16.785,4 32.5,4 C48.215,4 61,16.785 61,32.5 C61,48.215 48.215,61 32.5,61 L32.5,61 Z" id="Shape"></path>
                    <circle id="Oval" cx="33.017" cy="49.541" r="3.345"></circle>
                    <path d="M32.385,12.789 C29.318,12.789 26.363,14.089 24.065,16.449 C23.294,17.241 23.311,18.507 24.102,19.277 C24.893,20.048 26.161,20.031 26.93,19.24 C28.469,17.659 30.407,16.789 32.385,16.789 C36.711,16.789 40.231,20.23 40.231,24.46 C40.231,28.545 36.423,32.128 32.369,32.128 C31.265,32.128 30.119,33.024 30.119,34.128 L30.119,41.342 C30.119,42.446 31.015,43.342 32.119,43.342 C33.223,43.342 34.119,42.446 34.119,41.342 L34.119,35.946 C40.119,34.962 43.981,30.101 43.981,24.46 C43.98,18.024 38.917,12.789 32.385,12.789 L32.385,12.789 Z" id="Shape"></path>
                </g>
            </g>
        </g>
    </g>
</svg>