<?xml version="1.0" encoding="UTF-8" standalone="no"?>
<svg width="511px" height="471px" viewBox="0 0 511 471" version="1.1" xmlns="http://www.w3.org/2000/svg" xmlns:xlink="http://www.w3.org/1999/xlink">
    <!-- Generator: Sketch 3.8.3 (29802) - http://www.bohemiancoding.com/sketch -->
    <title>school</title>
    <desc>Created with Sketch.</desc>
    <defs></defs>
    <g id="Page-1" stroke="none" stroke-width="1" fill="none" fill-rule="evenodd">
        <g id="school" fill="#212121">
            <g id="Group">
                <path d="M503.5,456 L487,456 L487,247 L503.5,247 C506.237,247 508.757,245.509 510.075,243.109 C511.392,240.709 511.297,237.782 509.828,235.473 L453.828,147.473 C452.451,145.309 450.065,143.999 447.5,143.999 L298.606,143.999 L263,108.394 L263,79 L335.5,79 C338.266,79 340.808,77.478 342.113,75.039 C343.418,72.601 343.275,69.641 341.74,67.34 L328.514,47.5 L341.741,27.66 C343.276,25.359 343.418,22.399 342.114,19.961 C340.808,17.522 338.266,16 335.5,16 L263,16 L263,7.5 C263,3.358 259.642,0 255.5,0 C251.358,0 248,3.358 248,7.5 L248,108.394 L212.394,144 L63.5,144 C60.936,144 58.549,145.31 57.172,147.474 L1.172,235.474 C-0.297,237.783 -0.392,240.71 0.925,243.11 C2.243,245.509 4.763,247 7.5,247 L24,247 L24,456 L7.5,456 C3.358,456 2.71050543e-20,459.358 2.71050543e-20,463.5 C2.71050543e-20,467.642 3.358,471 7.5,471 L503.5,471 C507.642,471 511,467.642 511,463.5 C511,459.358 507.642,456 503.5,456 L503.5,456 Z M443.383,159 L489.838,232 L386.606,232 L313.606,159 L443.383,159 L443.383,159 Z M321.486,31 L313.259,43.34 C311.579,45.859 311.579,49.141 313.259,51.66 L321.486,64 L263,64 L263,31 L321.486,31 L321.486,31 Z M67.617,159 L197.393,159 L124.393,232 L21.163,232 L67.617,159 L67.617,159 Z M39,247 L127.498,247 C127.746,247 127.994,246.987 128.242,246.962 C128.348,246.952 128.452,246.932 128.557,246.917 C128.694,246.897 128.831,246.881 128.968,246.854 C129.09,246.83 129.208,246.796 129.328,246.766 C129.445,246.737 129.563,246.71 129.679,246.676 C129.797,246.64 129.912,246.595 130.028,246.554 C130.143,246.513 130.258,246.475 130.372,246.428 C130.481,246.383 130.585,246.33 130.691,246.28 C130.806,246.225 130.923,246.174 131.036,246.113 C131.139,246.058 131.236,245.995 131.336,245.936 C131.446,245.871 131.558,245.808 131.665,245.736 C131.777,245.661 131.882,245.578 131.989,245.497 C132.077,245.431 132.168,245.37 132.253,245.299 C132.445,245.142 132.629,244.976 132.804,244.8 L255.5,122.106 L378.196,244.801 C378.371,244.976 378.556,245.142 378.747,245.3 C378.832,245.37 378.922,245.431 379.01,245.497 C379.118,245.578 379.224,245.662 379.336,245.737 C379.442,245.808 379.553,245.87 379.662,245.935 C379.763,245.996 379.861,246.059 379.965,246.114 C380.077,246.174 380.192,246.225 380.307,246.279 C380.414,246.33 380.52,246.383 380.63,246.429 C380.742,246.475 380.856,246.512 380.969,246.553 C381.086,246.595 381.202,246.64 381.322,246.677 C381.436,246.712 381.552,246.737 381.667,246.766 C381.789,246.797 381.909,246.831 382.033,246.855 C382.165,246.881 382.298,246.897 382.431,246.916 C382.54,246.932 382.648,246.952 382.759,246.963 C383.005,246.987 383.252,247 383.499,247 L472,247 L472,456 L311,456 L311,351.5 C311,338.542 300.458,328 287.5,328 L223.5,328 C210.542,328 200,338.542 200,351.5 L200,456 L39,456 L39,247 L39,247 Z M296,360 L215,360 L215,351.5 C215,346.813 218.813,343 223.5,343 L287.5,343 C292.187,343 296,346.813 296,351.5 L296,360 L296,360 Z M215,375 L248,375 L248,456 L215,456 L215,375 L215,375 Z M263,375 L296,375 L296,456 L263,456 L263,375 L263,375 Z" id="Shape"></path>
                <path d="M255.5,303 C286.103,303 311,278.103 311,247.5 C311,216.897 286.103,192 255.5,192 C224.897,192 200,216.897 200,247.5 C200,278.103 224.897,303 255.5,303 L255.5,303 Z M255.5,207 C277.832,207 296,225.168 296,247.5 C296,269.832 277.832,288 255.5,288 C233.168,288 215,269.832 215,247.5 C215,225.168 233.168,207 255.5,207 L255.5,207 Z" id="Shape"></path>
                <path d="M255.5,255 C259.642,255 263,251.642 263,247.5 L263,223.5 C263,219.358 259.642,216 255.5,216 C251.358,216 248,219.358 248,223.5 L248,240 L231.5,240 C227.358,240 224,243.358 224,247.5 C224,251.642 227.358,255 231.5,255 L255.5,255 L255.5,255 Z" id="Shape"></path>
                <path d="M175.5,368 L135.5,368 C131.358,368 128,371.358 128,375.5 L128,423.5 C128,427.642 131.358,431 135.5,431 L175.5,431 C179.642,431 183,427.642 183,423.5 L183,375.5 C183,371.358 179.642,368 175.5,368 L175.5,368 Z M168,383 L168,392 L143,392 L143,383 L168,383 L168,383 Z M143,416 L143,407 L168,407 L168,416 L143,416 L143,416 Z" id="Shape"></path>
                <path d="M103.5,368 L63.5,368 C59.358,368 56,371.358 56,375.5 L56,423.5 C56,427.642 59.358,431 63.5,431 L103.5,431 C107.642,431 111,427.642 111,423.5 L111,375.5 C111,371.358 107.642,368 103.5,368 L103.5,368 Z M96,383 L96,392 L71,392 L71,383 L96,383 L96,383 Z M71,416 L71,407 L96,407 L96,416 L71,416 L71,416 Z" id="Shape"></path>
                <path d="M173,272 L138,272 C132.486,272 128,276.486 128,282 L128,335.5 C128,339.642 131.358,343 135.5,343 L175.5,343 C179.642,343 183,339.642 183,335.5 L183,282 C183,276.486 178.514,272 173,272 L173,272 Z M168,287 L168,304 L143,304 L143,287 L168,287 L168,287 Z M143,328 L143,319 L168,319 L168,328 L143,328 L143,328 Z" id="Shape"></path>
                <path d="M101,272 L66,272 C60.486,272 56,276.486 56,282 L56,335.5 C56,339.642 59.358,343 63.5,343 L103.5,343 C107.642,343 111,339.642 111,335.5 L111,282 C111,276.486 106.514,272 101,272 L101,272 Z M96,287 L96,304 L71,304 L71,287 L96,287 L96,287 Z M71,328 L71,319 L96,319 L96,328 L71,328 L71,328 Z" id="Shape"></path>
                <path d="M407.5,431 L447.5,431 C451.642,431 455,427.642 455,423.5 L455,375.5 C455,371.358 451.642,368 447.5,368 L407.5,368 C403.358,368 400,371.358 400,375.5 L400,423.5 C400,427.642 403.358,431 407.5,431 L407.5,431 Z M415,416 L415,407 L440,407 L440,416 L415,416 L415,416 Z M440,383 L440,392 L415,392 L415,383 L440,383 L440,383 Z" id="Shape"></path>
                <path d="M335.5,431 L375.5,431 C379.642,431 383,427.642 383,423.5 L383,375.5 C383,371.358 379.642,368 375.5,368 L335.5,368 C331.358,368 328,371.358 328,375.5 L328,423.5 C328,427.642 331.358,431 335.5,431 L335.5,431 Z M343,416 L343,407 L368,407 L368,416 L343,416 L343,416 Z M368,383 L368,392 L343,392 L343,383 L368,383 L368,383 Z" id="Shape"></path>
                <path d="M407.5,343 L447.5,343 C451.642,343 455,339.642 455,335.5 L455,282 C455,276.486 450.514,272 445,272 L410,272 C404.486,272 400,276.486 400,282 L400,335.5 C400,339.642 403.358,343 407.5,343 L407.5,343 Z M415,328 L415,319 L440,319 L440,328 L415,328 L415,328 Z M440,287 L440,304 L415,304 L415,287 L440,287 L440,287 Z" id="Shape"></path>
                <path d="M335.5,343 L375.5,343 C379.642,343 383,339.642 383,335.5 L383,282 C383,276.486 378.514,272 373,272 L338,272 C332.486,272 328,276.486 328,282 L328,335.5 C328,339.642 331.358,343 335.5,343 L335.5,343 Z M343,328 L343,319 L368,319 L368,328 L343,328 L343,328 Z M368,287 L368,304 L343,304 L343,287 L368,287 L368,287 Z" id="Shape"></path>
            </g>
        </g>
    </g>
</svg>